{
    "asset": {
        "copyright": "2024 (c) Adobe Inc.",
        "generator": "Adobe Substance 3D Stager - b502d25ecd3326a18b935c9844d597067f3ccddb",
        "version": "2.0",
        "extensions": {
            "KHR_xmp_json_ld": {
                "packet": 0
            }
        }
    },
    "accessors": [
        {
            "bufferView": 0,
            "componentType": 5126,
            "count": 84451,
            "type": "VEC3",
            "max": [
                0.054232995957136157,
                0.17167899012565614,
                0.11475200206041336
            ],
            "min": [
                -0.05245799943804741,
                -0.0028909998945891859,
                -0.09660699963569641
            ]
        },
        {
            "bufferView": 1,
            "componentType": 5126,
            "count": 84451,
            "type": "VEC3"
        },
        {
            "bufferView": 2,
            "componentType": 5126,
            "count": 84451,
            "type": "VEC2"
        },
        {
            "bufferView": 3,
            "componentType": 5125,
            "count": 449292,
            "type": "SCALAR",
            "max": [
                84450.0
            ],
            "min": [
                0.0
            ]
        }
    ],
    "bufferViews": [
        {
            "buffer": 0,
            "byteOffset": 0,
            "byteLength": 1013412,
            "target": 34962
        },
        {
            "buffer": 0,
            "byteOffset": 1013412,
            "byteLength": 1013412,
            "target": 34962
        },
        {
            "buffer": 0,
            "byteOffset": 2026824,
            "byteLength": 675608,
            "target": 34962
        },
        {
            "buffer": 0,
            "byteOffset": 2702432,
            "byteLength": 1797168,
            "target": 34963
        }
    ],
    "buffers": [
        {
            "byteLength": 4499600,
            "uri": "elephant_binary.bin"
        }
    ],
    "cameras": [
        {
            "perspective": {
                "znear": 0.000013411510735750199,
                "yfov": 0.3995896875858307,
                "zfar": 2.0,
                "aspectRatio": 1.7777777910232545
            },
            "type": "perspective",
            "name": "render_camera"
        }
    ],
    "images": [
        {
            "name": "elephant_zun-36_6_a_b-150k-4096-diffuse",
            "uri": "elephant_images/elephant_zun-36_6_a_b-150k-4096-diffuse.jpg",
            "mimeType": "image/jpeg"
        },
        {
            "name": "sampler",
            "uri": "elephant_images/sampler.png",
            "mimeType": "image/png"
        },
        {
            "name": "elephant_zun-36_6_a_b-150k-4096-normals",
            "uri": "elephant_images/elephant_zun-36_6_a_b-150k-4096-normals.png",
            "mimeType": "image/png"
        }
    ],
    "materials": [
        {
            "pbrMetallicRoughness": {
                "baseColorTexture": {
                    "index": 0
                },
                "metallicFactor": 0.10000000149011612,
                "roughnessFactor": 0.800000011920929
            },
            "normalTexture": {
                "index": 2
            },
            "occlusionTexture": {
                "index": 1
            },
            "name": "default",
            "doubleSided": true
        }
    ],
    "meshes": [
        {
            "name": "unnamed_n3d",
            "primitives": [
                {
                    "attributes": {
                        "POSITION": 0,
                        "NORMAL": 1,
                        "TEXCOORD_0": 2
                    },
                    "indices": 3,
                    "material": 0
                }
            ]
        }
    ],
    "nodes": [
        {
            "name": "working_cam_n3d"
        },
        {
            "mesh": 0,
            "name": "unnamed_n3d"
        },
        {
            "translation": [
                0.3116786777973175,
                0.2791518270969391,
                -0.3726162612438202
            ],
            "rotation": [
                -0.0626569539308548,
                0.9268714785575867,
                0.17939256131649018,
                0.32373088598251345
            ],
            "scale": [
                1.0,
                0.9999999403953552,
                1.0000001192092896
            ],
            "camera": 0,
            "name": "render_camera_n3d"
        }
    ],
    "samplers": [
        {}
    ],
    "scenes": [
        {
            "nodes": [
                1,
                2
            ],
            "name": "scene"
        }
    ],
    "textures": [
        {
            "name": "tmp_image_pie_0bae_b238_3801",
            "sampler": 0,
            "source": 0
        },
        {
            "name": "sampler",
            "sampler": 0,
            "source": 1
        },
        {
            "name": "tmp_image_pie_2914_08f9_10d4",
            "sampler": 0,
            "source": 2
        }
    ],
    "scene": 0,
    "extensions": {
        "KHR_xmp_json_ld": {
            "packets": [
                {
                    "@context": {
                        "dc": "http://purl.org/dc/elements/1.1/"
                    },
                    "dc:date": "2024-12-08T20:48:53.899Z",
                    "dc:title": "elephant.ssg",
                    "xmp:CreatorTool": "Adobe Substance 3D Stager"
                }
            ]
        }
    },
    "extensionsUsed": [
        "KHR_xmp_json_ld"
    ]
}